<svg xmlns="http://www.w3.org/2000/svg" width="200" height="200" class="icon" viewBox="0 0 1024 1024"><path d="M512 910.222c219.932 0 398.222-178.29 398.222-398.222S731.932 113.778 512 113.778 113.778 292.068 113.778 512 292.068 910.222 512 910.222zm0 56.889C260.649 967.11 56.89 763.35 56.89 512S260.648 56.89 512 56.89 967.11 260.648 967.11 512 763.352 967.11 512 967.11z"/><path d="m513.618 284.04 40.226 40.227L694.637 465.06c11.108 11.108 11.108 29.117 0 40.226-11.109 11.108-29.119 11.108-40.227 0l-114.37-114.37v319.791c0 15.708-12.735 28.444-28.444 28.444-15.71 0-28.445-12.735-28.445-28.444V394.96L372.825 505.286c-11.11 11.108-29.12 11.108-40.227 0-11.108-11.109-11.108-29.118 0-40.226l140.793-140.793 40.226-40.227z"/></svg>