<svg xmlns="http://www.w3.org/2000/svg" width="200" height="200" class="icon" viewBox="0 0 1024 1024"><path d="M349.069 160.707c1.999 0 3.797.564 5.176 1.19l92.106 131.579a55.936 55.936 0 0 0-2.447 1.619c-25.862 18.103-54.236 36.87-64.026 42.405-17.382 6.109-31.103 20.599-35.768 39.257-5.425 21.7-3.188 47.129 6.84 77.741 11.658 35.588 34.5 79.029 67.893 129.118.365.547.739 1.087 1.122 1.62 37.252 51.828 69.969 89.685 97.242 112.519 24.669 20.654 46.954 30.694 68.127 30.694 6.02 0 12-.971 17.711-2.875l10.579-3.527a56.026 56.026 0 0 0 12.192-5.778l67-42.315.151-.096.038.06c.452.723.92 1.436 1.405 2.138l93.123 134.867a34.346 34.346 0 0 1-.618 2.356c-2.568 8.559-11.168 25.417-39.881 44.973-19.669 2.746-38.766 5.04-59.436 5.04-52.117 0-95.126-10.816-114.901-16.205-88.614-59.462-146.993-135.763-187.991-195.683-.213-.311-.429-.62-.648-.927l-34.735-48.63c-37.677-56.59-89.807-143.289-113.444-248.927.914-7.776 4.749-32.187 13.89-63.832 11.099-38.423 26.192-73.999 43.96-103.744a55.272 55.272 0 0 0 1.562-1.172c27.044-21.032 43.644-23.465 53.778-23.465m0-56c-28.211 0-56.422 10.579-88.159 35.263l-7.053 3.527c-59.948 91.685-74.053 201.002-74.053 208.055v7.052c24.685 116.37 81.106 211.581 123.422 275.055l35.263 49.369c45.843 67.001 109.317 148.107 204.528 211.581l3.527 3.527c3.527 0 63.474 21.158 141.054 21.158 28.21 0 52.895-3.527 77.58-7.053l7.052-3.527c88.159-56.422 70.527-116.37 70.527-116.37L740.493 644.238c-11.165-17.864-29.401-27.244-47.543-27.244-10.508 0-20.983 3.146-30.037 9.613l-67 42.315-10.579 3.527c-7.053 0-38.79-7.053-119.896-119.896-70.527-105.79-70.527-148.106-67-162.212 7.052 0 77.58-49.369 77.58-49.369 24.684-14.105 35.263-49.369 17.632-77.579l-98.739-141.055s-17.632-17.631-45.842-17.631z"/></svg>