<svg xmlns="http://www.w3.org/2000/svg" width="200" height="200" class="icon" viewBox="0 0 1024 1024"><path d="M853.128 1023.724H170.645A120.716 120.716 0 0 1 42.648 912.822v-476.89A197.913 197.913 0 0 1 .01 312.654V127.998A127.97 127.97 0 0 1 127.98 0h767.785a127.97 127.97 0 0 1 127.998 127.97v184.685a197.913 197.913 0 0 1-42.666 123.276v476.89A120.716 120.716 0 0 1 853.1 1023.754zM127.979 498.65v414.172c0 11.946 18.347 25.6 42.666 25.6h682.483c24.32 0 42.666-13.654 42.666-25.6V498.65a198.34 198.34 0 0 1-227.38-62.719 199.193 199.193 0 0 1-313.083 0A198.34 198.34 0 0 1 127.98 498.65zm583.1-413.347v227.352a113.89 113.89 0 1 0 227.352 0V127.998a42.666 42.666 0 0 0-42.666-42.666H711.108zm-313.082.029v227.352a113.89 113.89 0 0 0 227.779 0V85.332H397.997zm-270.018 0a42.666 42.666 0 0 0-42.666 42.666v184.686a113.89 113.89 0 1 0 227.352 0V85.332H128.008z"/></svg>