<svg xmlns="http://www.w3.org/2000/svg" width="200" height="200" class="icon" viewBox="0 0 1024 1024"><path d="M838.955 234.667H170.667a42.28 42.28 0 0 0-10.56 1.322l323.69 323.67a21.333 21.333 0 0 0 30.166 0l324.992-324.992zm46.144 14.186L624.405 509.547 887.34 772.459a42.517 42.517 0 0 0 8.66-25.792V277.333c0-10.944-4.117-20.906-10.88-28.48zm-41.238 540.48-249.6-249.621-50.133 50.133a64 64 0 0 1-90.517 0l-50.112-50.133L156.373 786.88a42.92 42.92 0 0 0 14.315 2.453h673.195zm-715.2-35.114 244.672-244.694L129.58 265.813a42.71 42.71 0 0 0-1.579 11.52v469.334c0 2.56.213 5.098.661 7.552zM170.667 192h682.666a85.333 85.333 0 0 1 85.334 85.333v469.334A85.333 85.333 0 0 1 853.333 832H170.667a85.333 85.333 0 0 1-85.334-85.333V277.333A85.333 85.333 0 0 1 170.667 192z"/></svg>