<svg xmlns="http://www.w3.org/2000/svg" width="200" height="200" class="icon" viewBox="0 0 1024 1024"><path d="M324.6 307.2c-70.9 0-128.5 57.7-128.5 128.5s57.6 128.5 128.5 128.5 128.5-57.6 128.5-128.5-57.6-128.5-128.5-128.5zm0 203.2c-41.2 0-74.7-33.5-74.7-74.7s33.5-74.7 74.7-74.7 74.7 33.5 74.7 74.7-33.5 74.7-74.7 74.7zm477.3-101.6h-74.7v-74.7c0-14.9-12-26.9-26.9-26.9-14.9 0-26.9 12-26.9 26.9v74.7h-74.7c-14.9 0-26.9 12-26.9 26.9s12 26.9 26.9 26.9h74.7v74.7c0 14.9 12 26.9 26.9 26.9 14.9 0 26.9-12 26.9-26.9v-74.7h74.7c14.9 0 26.9-12 26.9-26.9s-12-26.9-26.9-26.9z"/><path d="M959.3 306.8c0-89-72.4-161.4-161.4-161.4H681.5c-25.1 0-47.9 14.2-58 36.3-11.1 24.1-35.3 39.7-61.6 39.7h-99.7c-23.5 0-46.8-16.1-59.3-41.1-10.6-21.2-33.2-34.9-57.7-34.9H225.9c-89 0-161.4 72.4-161.4 161.4v186c0 .8 0 1.5.1 2.1 0 .7-.1 1.4-.1 2.2v248c0 38 14.9 73.8 41.9 100.7 27.1 27 63 41.8 101.2 41.8h.5c79-.3 114.4-32 139.9-125.6l29.6-89.8h268.6l29.9 90.8c27.5 80.9 58.1 124.7 140.9 124.7 78.5 0 142.3-63.9 142.3-142.3V497.1c0-.8 0-1.5-.1-2.1 0-.7.1-1.4.1-2.2v-186zm-53.8 185.5c-.1.8-.1 1.6-.1 3.2 0 .7 0 1.4.1 2.2v247.7c0 48.8-39.7 88.5-88.5 88.5-45.7 0-64.1-12.2-89.9-88l-35.9-109c-3.6-11-13.9-18.5-25.5-18.5H358.2c-11.6 0-21.9 7.5-25.5 18.5l-35.9 109c-.1.5-.3.9-.4 1.4-22.4 82.9-43.3 86.4-88.4 86.6h-.3c-23.9 0-46.3-9.3-63.2-26.1-16.8-16.8-26.1-39-26.1-62.6V497.8c.1-.7.1-1.5.1-2.2v-1c0-.7 0-1.4-.1-2.2V306.8c0-59.3 48.3-107.6 107.6-107.6h119.2c4.2 0 8 2.1 9.6 5.2 21.9 43.7 63 70.8 107.4 70.8h99.7c47.3 0 90.6-27.9 110.5-71 1.4-2.9 5.1-5 9.2-5h116.5c59.3 0 107.6 48.3 107.6 107.6v185.5z"/></svg>