<svg xmlns="http://www.w3.org/2000/svg" width="200" height="200" class="icon" viewBox="0 0 1024 1024"><path d="M725.333 64c117.824 0 213.334 95.51 213.334 213.333v469.334C938.667 864.49 843.157 960 725.333 960H298.667c-117.824 0-213.334-95.51-213.334-213.333V277.333C85.333 159.51 180.843 64 298.667 64h426.666zm0 74.667H298.667a138.667 138.667 0 0 0-138.582 133.696l-.085 4.97v469.334a138.667 138.667 0 0 0 133.696 138.581l4.97.085h426.667a138.667 138.667 0 0 0 138.582-133.696l.085-4.97V277.333a138.667 138.667 0 0 0-133.696-138.581l-4.97-.085z"/><path d="M661.333 293.333a37.333 37.333 0 0 1 3.072 74.539l-3.072.128H362.667a37.333 37.333 0 0 1-3.072-74.539l3.072-.128h298.666zm-28.416 173.12a37.333 37.333 0 0 1 58.923 45.739l-2.09 2.688L515.2 719.637a37.333 37.333 0 0 1-50.048 6.187l-2.688-2.09-124.117-106.625a37.333 37.333 0 0 1 45.973-58.752l2.667 2.112 95.701 82.176 150.23-176.213z"/></svg>