<svg xmlns="http://www.w3.org/2000/svg" width="200" height="200" class="icon" viewBox="0 0 1024 1024"><path d="M947.2 451.49h-86.11l48.874-146.617c2.327-9.31 0-18.618-6.982-25.6-6.982-6.982-18.618-6.982-25.6-2.328 0 0-86.11 51.2-141.964 9.31-2.327-2.328-4.654-4.655-9.309-6.982-2.327-2.328-4.654-2.328-6.982-4.655V81.455c2.328-32.582-23.272-58.182-58.182-58.182-32.581 0-58.181 25.6-58.181 58.182v53.527c0 6.982 6.981 13.963 13.963 13.963s13.964-6.981 13.964-13.963V81.455c0-16.291 13.964-32.582 32.582-32.582 16.29 0 30.254 13.963 30.254 32.582v197.818c-4.654 4.654-9.309 6.982-13.963 11.636-58.182 41.891-134.982-11.636-134.982-11.636-9.31-4.655-18.618-4.655-27.927 0-6.982 6.982-11.637 16.29-6.982 25.6l51.2 146.618H456.145l-74.472-267.636c-2.328-13.964-11.637-23.273-23.273-30.255-11.636-6.982-25.6-9.31-39.564-4.655l-174.545 46.546c-13.964 2.327-23.273 11.636-30.255 23.273-6.981 11.636-9.309 25.6-4.654 39.563l53.527 193.164H76.8c-13.964 0-23.273 9.309-23.273 23.273v470.109c0 44.218 34.91 79.127 79.128 79.127h761.018c44.218 0 79.127-34.91 79.127-79.127v-470.11c-2.327-11.636-11.636-23.272-25.6-23.272zM155.927 242.037l2.328-2.327L332.8 193.164h2.327l2.328 2.327 67.49 256h-195.49L153.6 244.364c2.327 0 2.327-2.328 2.327-2.328zm416.582 102.4c37.236 11.637 88.436 18.619 134.982-13.963 2.327 0 2.327-2.328 4.654-2.328 46.546 32.582 100.073 25.6 139.637 13.964l-37.237 111.71h-204.8L572.51 344.435zm351.418 600.437c0 18.618-13.963 32.582-32.582 32.582h-758.69c-18.619 0-32.582-13.964-32.582-32.582V498.036h828.509v446.837z"/><path d="M183.855 288.582a27.927 27.927 0 1 0 55.854 0 27.927 27.927 0 1 0-55.854 0ZM514.327 598.11c-46.545 0-83.782 37.235-83.782 83.78 0 6.983 6.982 13.965 13.964 13.965s13.964-6.982 13.964-13.964c0-30.255 25.6-55.855 55.854-55.855s55.855 25.6 55.855 55.855c0 30.254-25.6 55.854-55.855 55.854h-4.654c-6.982 0-13.964 6.982-13.964 13.964v58.182c0 6.982 6.982 13.964 13.964 13.964s13.963-6.982 13.963-13.964v-44.218c41.891-4.655 72.146-39.564 72.146-81.455 2.327-48.873-34.91-86.109-81.455-86.109zM486.4 863.418a27.927 27.927 0 1 0 55.855 0 27.927 27.927 0 1 0-55.855 0Z"/></svg>