<svg xmlns="http://www.w3.org/2000/svg" width="200" height="200" class="icon" viewBox="0 0 1024 1024"><path d="M217.548 5.849H75.008A71.68 71.68 0 0 0 3.33 77.528v869.16a71.68 71.68 0 0 0 71.68 71.68h142.539a71.68 71.68 0 0 0 71.679-71.68V77.324a71.68 71.68 0 0 0-71.68-71.474zm-6.4 77.874v116.94a9.728 9.728 0 0 0-1.28 0H81.358V83.722zM81.358 940.34V278.383H210.02a9.728 9.728 0 0 0 1.28 0V940.34zm938.433-21.35L883.806 60.325A71.68 71.68 0 0 0 801.886.882L661.088 23.205a70.962 70.962 0 0 0-46.591 28.62 68.3 68.3 0 0 0-5.632 9.217 71.68 71.68 0 0 0-69.427-55.193H396.9a71.68 71.68 0 0 0-71.679 71.679v869.16a71.68 71.68 0 0 0 71.68 71.68h142.538a71.68 71.68 0 0 0 71.68-71.68V162.673L737.99 963.687A71.68 71.68 0 0 0 808.286 1024a77.106 77.106 0 0 0 11.315-.87l140.799-22.323a71.68 71.68 0 0 0 59.391-81.817zM533.038 83.723v116.94h-129.79V83.722zM403.248 940.34V278.383h129.79V940.34zM807.723 78.808l18.432 115.762a11.725 11.725 0 0 0-1.28 0l-126.923 19.916-18.279-115.352zm5.837 866.396L710.137 291.388l126.923-20.02a11.93 11.93 0 0 0 1.28-.358l103.833 653.868z"/></svg>