<svg xmlns="http://www.w3.org/2000/svg" width="200" height="200" class="icon" viewBox="0 0 1024 1024"><path d="M513.28 981.333c-10.667 0-21.76-.426-32.853-1.28-232.96-15.786-420.694-203.52-436.48-436.48C26.88 293.973 207.36 74.24 454.827 43.093a52.181 52.181 0 0 1 43.946 88.32 278.87 278.87 0 0 0-76.8 229.974C437.333 485.12 538.453 586.24 662.187 601.6c85.333 10.667 168.96-17.493 229.973-76.8 16.213-15.36 40.107-19.2 59.733-9.387 20.054 9.814 31.574 31.574 28.587 53.334-29.013 237.226-231.253 412.586-467.2 412.586zm-132.267-833.28A386.56 386.56 0 0 0 128.853 537.6C142.08 728.32 295.68 881.92 486.4 895.147c174.507 11.946 331.947-94.294 389.547-252.16a364.8 364.8 0 0 1-224 43.093C490.24 665.6 357.973 533.76 337.493 371.627c-9.813-78.507 5.974-156.16 43.52-223.574z"/></svg>