<svg xmlns="http://www.w3.org/2000/svg" width="200" height="200" class="icon" viewBox="0 0 1024 1024"><path d="M512 374.24a37.064 37.064 0 0 0-37.064 37.063v361.944A37.064 37.064 0 0 0 512 810.311a37.064 37.064 0 0 0 37.064-37.064V411.333A37.064 37.064 0 0 0 512 374.24z"/><path d="M512 0C229.227 0 0 229.227 0 512s229.227 512 512 512 512-229.242 512-512S794.758 0 512 0zm309.59 821.619a436.318 436.318 0 1 1 93.865-139.2 436.594 436.594 0 0 1-93.836 139.2z"/><path d="M471.303 229.649a40.697 40.697 0 1 0 81.394 0 40.697 40.697 0 1 0-81.394 0Z"/></svg>