<svg xmlns="http://www.w3.org/2000/svg" width="200.195" height="200" class="icon" viewBox="0 0 1025 1024"><path d="M96.256 635.904h192c17.408 0 31.744-14.336 31.744-31.744 0-17.92-14.336-31.744-31.744-31.744h-192c-17.92 0-31.744 14.336-31.744 31.744s14.336 31.744 31.744 31.744zm918.528 267.776L904.704 793.6C939.008 750.08 960 695.808 960 636.416c0-141.312-114.688-256-256-256s-256 114.688-256 256 114.688 256 256 256c59.904 0 113.664-20.992 157.184-55.296l110.08 110.08c11.776 11.776 31.232 11.776 43.52 0 12.288-12.288 12.288-31.744 0-43.52zM841.216 770.048c-.512.512-1.536.512-2.048 1.024s-.512 1.536-1.536 2.048c-34.816 33.792-81.92 54.784-134.144 54.784-105.984 0-192-86.016-192-192s86.016-192 192-192S896 529.92 896 635.904c0 52.224-20.992 99.328-54.784 134.144zM96.256 251.904h576c17.92 0 31.744-14.336 31.744-31.744 0-17.92-14.336-31.744-31.744-31.744h-576c-17.92 0-31.744 14.336-31.744 31.744s14.336 31.744 31.744 31.744zm256 128h-256c-17.408 0-31.744 14.336-31.744 31.744s14.336 31.744 31.744 31.744h256c17.408 0 31.744-14.336 31.744-31.744.512-17.408-14.336-31.744-31.744-31.744zm0 384h-256c-17.408 0-31.744 14.336-31.744 31.744s14.336 31.744 31.744 31.744h256c17.408 0 31.744-14.336 31.744-31.744.512-17.408-14.336-31.744-31.744-31.744z"/></svg>