<svg xmlns="http://www.w3.org/2000/svg" width="200" height="200" class="icon" viewBox="0 0 1024 1024"><path d="M956.945 905.71H67.072l1.075-598.595H955.53m-887.4-68.113C31.095 239.002 0 267.298 0 304.35v601.36a67.072 67.072 0 0 0 67.055 67.09h889.873A67.072 67.072 0 0 0 1024 905.71V304.35c0-37.052-31.47-65.365-68.489-65.365H68.131zm167.885 239.7a33.536 33.536 0 0 0 0 67.09h469.333a33.536 33.536 0 0 0 0-67.09H236.015zm-2.39 204.664a33.536 33.536 0 0 0 0 67.107h298.343a33.536 33.536 0 0 0 0-67.107h-298.36zm386.817-396.458L541.32 142.643a33.502 33.502 0 0 0-41.575 0l-79.12 144.265-59-32.205L449.468 97.69a100.523 100.523 0 0 1 142.13 0l5.377 7.39 81.783 148.94-58.316 32.888z"/></svg>