<svg xmlns="http://www.w3.org/2000/svg" width="200" height="200" class="icon" viewBox="0 0 1024 1024"><path d="M682.56 791.96v39.91H341.28v-39.91c-126.42-62.825-213.3-193.281-213.3-344.03 0-212.044 171.896-383.94 383.94-383.94s383.94 171.896 383.94 383.94c0 150.749-86.88 281.205-213.3 344.03zm-170.64-24.08c176.704 0 319.95-143.246 319.95-319.95 0-176.704-143.246-319.95-319.95-319.95-176.704 0-319.95 143.246-319.95 319.95 0 176.704 143.246 319.95 319.95 319.95zM362.61 874.53h298.62v63.99H362.61v-63.99zm92.331-307.942 62.45-78.063-106.65-63.99 108.19-135.237 49.968 39.974-62.45 78.063 106.65 63.99-108.19 135.237-49.968-39.974z"/></svg>