<svg xmlns="http://www.w3.org/2000/svg" width="200" height="200" class="icon" viewBox="0 0 1024 1024"><path d="M916.2 108.3H467.1c-24.7 0-44.9 20.2-44.9 44.9V243H152.7c-49.4 0-89.8 40.4-89.8 89.8v359.3c0 49.4 40.4 89.8 89.8 89.8h47.2c13.5 0 20.2 9 18 22.5L206.7 865c-9 49.4 18 67.4 60.6 40.4l163.9-98.8c22.5-13.5 58.4-22.5 83.1-22.5H694c49.4 0 89.8-40.4 89.8-89.8V541.7l15.7 11.2c38.2 26.9 71.9 9 71.9-40.4V535c0-11.2 9-22.5 22.5-22.5h22.5c24.7 0 44.9-20.2 44.9-44.9V153.2c-.2-24.7-20.4-44.9-45.1-44.9zM736.6 692.1c0 24.7-20.2 44.9-44.9 44.9H500.8c-24.7 0-62.9 11.2-83.1 24.7l-146 92.1c-11.2 6.7-18 2.2-13.5-9l13.5-62.9c4.5-24.7-11.2-44.9-35.9-44.9h-83.1c-24.7 0-44.9-20.2-44.9-44.9V332.8c0-24.7 20.2-44.9 44.9-44.9h539c24.7 0 44.9 20.2 44.9 44.9v359.3zm179.6-247c0 13.5-9 22.5-22.5 22.5h-22.5c-24.7 0-44.9 20.2-44.9 44.9V499c0 13.5-9 18-18 11.2l-26.9-18V332.8c0-49.4-40.4-89.8-89.8-89.8H467v-67.4c0-11.2 11.2-22.5 22.5-22.5h404.2c11.2 0 22.5 11.2 22.5 22.5v269.5z"/><path d="M489.5 557.4H220.1c-13.5 0-22.5 9-22.5 22.5s11.2 22.5 22.5 22.5h269.5c13.5 0 22.5-9 22.5-22.5-.1-13.5-11.3-22.5-22.6-22.5zm134.8-134.7H220.1c-11.2 0-22.5 9-22.5 22.5s9 22.5 22.5 22.5h404.2c11.2 0 22.5-9 22.5-22.5s-9-22.5-22.5-22.5z"/></svg>