<svg xmlns="http://www.w3.org/2000/svg" width="200" height="200" class="icon" viewBox="0 0 1024 1024"><path d="M523.296 144.8c5.216 0 15.328 3.872 30.112 11.488l349.888 195.68a21.8 21.8 0 0 1 2.88 10.496c.032 2.208-.256 4.992-1.472 7.776L556 554.816c-11.392 5.792-21.856 8.736-31.072 8.736-8.48 0-16.288-2.432-24.608-7.616l-1.536-.96-1.6-.864-356.544-196c-2.272-4.096-2.752-8-2.784-10.336-.032-2.176.256-4.928 1.408-7.648l354.624-184.704c6.24-3.072 22.112-10.624 29.408-10.624m0-64c-17.376 0-34.624 5.952-58.176 17.44L97.472 289.696c-32.16 32.16-31.392 85.536 1.696 118.656l367.168 201.792c18.24 11.424 37.856 17.376 58.56 17.376 19.168 0 39.264-5.088 60.064-15.68l361.536-191.36c32.16-32.16 31.392-85.536-1.696-118.656L583.712 99.904C558.88 87.008 541.024 80.8 523.296 80.8z"/><path d="M759.968 556.128c-17.536 2.24-29.952 18.24-27.744 35.776l18.208 174.88-222.688 121.664-234.912-130.24L312 582.88c2.24-17.536-10.176-33.568-27.744-35.776-17.536-2.208-33.536 10.176-35.776 27.712L228.832 779.84a29.051 29.051 0 0 0 14.912 28.096l222.592 117.92c35.168 22.016 75.36 23.68 118.656 1.696l217.344-115.04a29.045 29.045 0 0 0 15.264-28.8L795.744 583.84c-2.24-17.536-18.24-29.92-35.776-27.712zM75.744 367.904v264c0 17.664 14.336 32 32 32s32-14.336 32-32v-264h-64zm32 326.016c-17.664 0-32 14.336-32 32v60c0 17.664 14.336 32 32 32s32-14.336 32-32v-60c0-17.664-14.336-32-32-32z"/></svg>