<svg xmlns="http://www.w3.org/2000/svg" width="200" height="200" class="icon" viewBox="0 0 1024 1024"><path d="M249.474 143.708c-78.957 49.396-128.096 141.149-128.096 239.364 0 12.03 9.725 21.755 21.818 21.755 12.03 0 21.755-9.726 21.755-21.755 0-83.37 41.27-160.984 107.685-202.51 10.173-6.398 13.309-19.834 6.91-30.008-6.334-10.11-19.77-13.244-30.072-6.846zm358.118 303.604c-11.581-3.71-23.738 2.496-27.513 13.949-30.136 92.713-111.14 155.097-201.358 155.097-12.029 0-21.754 9.725-21.754 21.627a21.696 21.696 0 0 0 21.754 21.754c109.157 0 206.605-74.221 242.82-184.978 3.71-11.389-2.496-23.738-13.949-27.449zm283.13-86.57c-11.838-2.688-23.29 4.543-26.042 16.252-14.653 63.024-56.306 115.683-111.204 140.637-11.006 4.926-15.868 17.851-10.878 28.792 3.775 7.998 11.517 12.797 19.9 12.797 3.007 0 6.142-.512 9.021-1.855 67.12-30.649 117.987-94.313 135.582-170.454 2.624-11.773-4.543-23.482-16.38-26.17zm109.732-7.87c0-184.594-139.997-334.829-311.858-334.829-46.325 0-92.073 11.134-133.663 32.312C502.978 18.491 443.09 0 379.041 0 183.058 0 23.546 171.413 23.546 382.112c0 179.22 115.62 329.71 270.78 370.596l-21.114 26.361c-5.311 6.527-6.335 15.484-2.688 23.098 3.583 7.487 11.198 12.221 19.58 12.221h56.945c-23.93 49.14 1.024 76.973 19.9 97.896 7.485 8.446 14.588 16.316 18.939 25.338 5.31 10.62 6.59 19.515 3.903 26.617-3.712 9.726-14.909 16.252-19.004 17.724-11.069 4.414-16.636 17.02-12.285 28.152 3.264 8.51 11.581 13.885 20.283 13.885 2.624 0 5.247-.512 7.806-1.408 3.264-1.215 32.248-13.244 43.765-42.613 5.055-12.989 8.254-34.36-5.374-61.873-7.038-14.332-16.892-25.21-25.53-34.743-19.899-22.33-28.153-31.352-2.815-67.055.448-.64.512-1.344.896-1.92h39.606c8.19 0 15.74-4.478 19.387-11.837 3.775-7.294 3.071-16.124-1.664-22.65l-15.612-21.627c62.832-11.709 120.162-40.821 167.254-82.859a222.892 222.892 0 0 0 21.627 5.503l-9.214 10.11c-5.63 6.59-7.038 15.611-3.583 23.353 3.455 7.742 11.325 12.861 19.835 12.861h32.056c-29.113 58.61-5.566 89.642 13.885 115.107 7.23 9.534 14.268 18.492 18.62 28.985 15.74 37.047-7.36 51.955-14.653 55.41-10.942 5.119-15.676 17.852-10.686 28.73 3.584 8.125 11.582 12.86 19.835 12.86 2.88 0 6.015-.768 8.894-1.984 19.707-8.893 64.688-46.388 36.727-111.972-6.654-15.612-15.996-27.897-24.25-38.646-18.62-24.506-28.857-38.006-2.88-81.26 1.536-2.367 2.176-4.862 2.624-7.358h24.89c8.382 0 15.868-4.607 19.515-12.029 3.903-7.358 2.943-16.316-1.983-22.714l-8.574-11.261c142.94-30.137 251.265-165.783 251.265-328.238zm-664.858 418.2 7.038-9.023c12.03 1.344 24.122 1.984 36.407 1.984 3.52 0 6.974-.384 10.494-.384l5.246 7.294-59.185.128zm260.99-179.988c-.511.512-.959 1.152-1.343 1.792-6.142 7.358-12.605 14.46-19.387 21.37-50.1 50.612-116.323 82.22-189.329 84.203h-.192l-35.19-1.727c-1.408-.128-2.624 0-3.904.128C202.19 679.51 88.938 545.016 88.938 382.112c0-174.676 130.207-316.848 290.231-316.848 57.714 0 111.524 18.747 156.825 50.611 19.643 13.82 37.175 29.88 52.85 47.732 2.112 2.56 4.352 5.183 6.527 7.806 5.183 6.27 10.046 12.86 14.716 19.515 2.24 3.263 4.48 6.463 6.655 9.79 4.927 7.678 9.533 15.676 13.884 23.738.96 2.175 2.368 4.287 3.391 6.526 5.055 10.11 9.534 20.603 13.565 31.224 1.344 3.712 2.495 7.55 3.903 11.326 2.368 7.614 4.799 15.292 6.782 23.098 1.216 4.159 1.92 8.318 2.944 12.54a349.201 349.201 0 0 1 4.35 24.699c.512 3.775 1.216 7.55 1.536 11.325 1.344 12.093 2.112 24.442 2.112 36.854.128 76.91-26.042 151.387-72.622 209.036zm92.01 31.288c-10.685 0-21.243-.767-31.864-2.239.384-.512.64-.896 1.024-1.344 17.98-24.378 33.335-51.187 45.364-79.98.128-.256.256-.576.384-.831 3.2-8.19 6.207-16.508 9.214-24.826.896-2.56 1.663-5.055 2.495-7.55 2.304-7.423 4.287-14.78 6.399-22.395 1.151-4.03 1.983-8.062 2.879-12.157 1.472-6.59 2.943-13.18 4.03-19.899 1.153-6.014 1.856-12.029 2.624-18.107a265.125 265.125 0 0 0 1.792-15.612c1.215-11.773 1.663-23.546 1.663-35.384 0-13.564-.767-26.937-1.983-40.117-.384-4.287-1.28-8.51-1.664-12.797-1.343-8.83-2.367-17.596-4.03-26.17-1.152-5.438-2.624-10.685-3.84-16.06-1.663-7.166-3.327-14.46-5.566-21.434-1.728-6.015-4.031-11.837-6.015-17.66-2.111-6.142-4.223-12.22-6.654-18.171-2.496-6.207-5.375-12.157-8.126-18.236-2.624-5.375-4.99-10.75-7.742-15.996-3.135-6.014-6.59-11.837-9.982-17.66-2.879-5.054-6.014-9.98-9.15-14.78-3.583-5.502-7.358-10.877-11.26-16.188-3.776-4.926-7.359-9.853-11.262-14.588-3.839-4.735-7.55-9.342-11.709-13.82-4.67-5.311-9.598-10.366-14.524-15.42-2.24-2.24-4.223-4.8-6.59-7.103 23.865-8.19 49.011-12.477 74.093-12.477 135.902 0 246.594 120.93 246.594 269.5-.192 148.636-110.692 269.501-246.594 269.501z"/></svg>