<svg xmlns="http://www.w3.org/2000/svg" width="200" height="200" class="icon" viewBox="0 0 1024 1024"><path d="m679.528 590.393-109.433 108.3c-.098.098-.287.189-.379.287-8.595 8.594-8.595 22.569 0 31.254 8.59 8.588 22.563 8.588 31.254 0 .568-.568.752-1.322 1.32-1.891l66.004-66 31.158-31.252s21.433 20.11 21.908 19.828c8.211 3.868 18.22 2.643 24.924-4.16 8.594-8.588 8.594-22.561 0-31.248l-15.578-15.584s-2.929-3.301-4.532-4.91c-12.842-12.743-32.39-14.254-46.646-4.624zm88.001 108.679 10.009 10.106c8.595 8.588 22.57 8.588 31.255 0 8.595-8.595 8.595-22.567 0-31.255l-10.102-10.105-.097.097c-.093-.097-.188-.282-.28-.379-8.594-8.592-22.569-8.592-31.254 0-8.595 8.594-8.595 22.569 0 31.255.187.092.28.189.469.281zM836.462 70.5H188.34c-65.15 0-117.84 52.688-117.84 117.84v648.122c0 65.053 52.781 117.839 117.84 117.839h648.122c65.053 0 117.839-52.786 117.839-117.839V188.34c0-65.152-52.786-117.84-117.839-117.84zm58.917 765.962c0 32.572-26.345 58.917-58.917 58.917H188.34c-32.579 0-58.918-26.345-58.918-58.917v-69.873L286.16 616.55c5.289-4.44 8.687-4.723 13.976-.097l120.39 98.483c10.386 7.272 21.719 16.336 30.593 16.336 8.876 0 19.453-3.019 30.878-14.445l218.777-218.782c1.136.097 2.268.379 3.495.379.379 0 .756-.093 1.135-.093L895.38 702.285v134.177h-.001zm0-220.668L738.073 446.966c-5.666-13.029-18.604-22.191-33.805-22.191-13.597 0-25.307 7.363-31.633 18.318L457.354 658.375c-6.235 4.44-6.235 4.44-13.035 0l-122.183-99.993c-6.703-8.967-17.373-14.821-29.365-14.821-6.136 0-11.899 1.696-16.994 4.341l-5.762 3.687c-1.886 1.415-3.495 3.109-5.099 4.813l-135.495 129.83V188.34c0-32.579 26.339-58.918 58.918-58.918h648.122c32.572 0 58.917 26.339 58.917 58.918v427.454h.001zM335.641 217.8c-48.816 0-88.379 39.563-88.379 88.379s39.563 88.379 88.379 88.379 88.379-39.563 88.379-88.379-39.563-88.379-88.379-88.379zm0 117.84c-16.243 0-29.462-13.219-29.462-29.461 0-16.238 13.219-29.46 29.462-29.46 16.237 0 29.461 13.223 29.461 29.46 0 16.242-13.224 29.461-29.461 29.461zm0 0"/></svg>