<svg xmlns="http://www.w3.org/2000/svg" width="200" height="200" class="icon" viewBox="0 0 1024 1024"><path d="M512.64 0a42.667 42.667 0 0 1 42.56 39.467l.128 3.2-.021 49.92C728.533 108.16 862.89 269.163 862.89 463.36v126.72c0 54.955 18.176 107.733 50.602 147.733l17.408 21.483c37.739 46.55 8.278 121.707-53.61 121.707H689.088a180.075 180.075 0 0 1-345.11 0H155.734c-61.888 0-91.349-75.179-53.589-121.707l17.408-21.504c32.427-39.979 50.581-92.757 50.581-147.712V463.36c0-191.296 130.39-350.357 299.84-369.963v-50.73A42.667 42.667 0 0 1 512.64 0zm83.413 881.003H436.971a94.656 94.656 0 0 0 159.104 0zm-68.288-704.299H512.64l-.47-.021h-6.89c-134.741 0-246.485 123.605-249.728 279.68l-.085 7.018V590.08c0 74.261-24.704 146.048-69.611 201.43l-3.392 4.138h668.075l-3.328-4.117c-43.2-53.27-67.712-121.686-69.547-192.896l-.107-8.555V463.36c0-159.36-113.045-286.656-249.813-286.656z"/></svg>