<svg xmlns="http://www.w3.org/2000/svg" width="200" height="200" class="icon" viewBox="0 0 1024 1024"><path d="M64 192v518.4c0 4.693 3.84 8.533 8.533 8.533H128c4.693 0 8.533-3.84 8.533-8.533V232.533h750.934V710.4c0 4.693 3.84 8.533 8.533 8.533h55.467c4.693 0 8.533-3.84 8.533-8.533V192c0-17.493-14.507-32-32-32H96c-17.493 0-32 14.507-32 32z"/><path d="M780.8 330.667H243.2c-4.693 0-8.533 3.84-8.533 8.533v55.467c0 4.693 3.84 8.533 8.533 8.533h537.6c4.693 0 8.533-3.84 8.533-8.533V339.2c0-4.693-3.84-8.533-8.533-8.533zm-537.6 243.2h537.6c4.693 0 8.533-3.84 8.533-8.534v-55.466c0-4.694-3.84-8.534-8.533-8.534H243.2c-4.693 0-8.533 3.84-8.533 8.534v55.466c0 4.694 3.84 8.534 8.533 8.534zm187.733 145.066H243.2c-4.693 0-8.533 3.84-8.533 8.534v64H72.533c-4.693 0-8.533 3.84-8.533 8.533v55.467c0 4.693 3.84 8.533 8.533 8.533h878.934c4.693 0 8.533-3.84 8.533-8.533V800c0-4.693-3.84-8.533-8.533-8.533h-512v-64c0-4.694-3.84-8.534-8.534-8.534z"/></svg>