<svg xmlns="http://www.w3.org/2000/svg" xmlns:xlink="http://www.w3.org/1999/xlink" viewBox="0 0 932.38 673.19"><defs><linearGradient id="a" y1="1024" x2="1" y2="1024" gradientTransform="matrix(547.69, 0, 0, -547.69, 244.15, 561186.99)" gradientUnits="userSpaceOnUse"><stop offset="0" stop-color="#fff"/><stop offset="0" stop-color="#e5e5e5"/><stop offset="0" stop-color="#cacaca"/><stop offset="0" stop-color="#b4b4b4"/><stop offset="0" stop-color="#a5a5a5"/><stop offset="0" stop-color="#9c9c9c"/><stop offset="0" stop-color="#999"/><stop offset="0" stop-color="#ababab"/><stop offset="0" stop-color="#bebebe"/><stop offset="0" stop-color="#c8c8c8"/><stop offset="0" stop-color="#ccc"/><stop offset="0.03" stop-color="#fff"/><stop offset="0.09" stop-color="#fff"/><stop offset="0.45" stop-color="#fff"/><stop offset="1" stop-color="#fff"/></linearGradient><clipPath id="b" transform="translate(15.63 -159.23)"><rect width="1024" height="1024" fill="none"/></clipPath><clipPath id="c" transform="translate(15.63 -159.23)"><path d="M708.49,686.45c-.08.1-.13.21-.21.32a29.34,29.34,0,0,1-20.84,13,30,30,0,0,1-3.81.25h-291c-18.48,0-37.76,9.42-51.37,23.2a70.85,70.85,0,0,0-10.32,12.45,35.24,35.24,0,0,0-5.13,15.66,15.68,15.68,0,0,0,15.39,15.57H633.57a85.38,85.38,0,0,0,18.37-4.78,88.51,88.51,0,0,0,52.36-55.45l-.08,0,2.5-9.08L711.29,681a31.67,31.67,0,0,1-2.8,5.47" fill="none"/></clipPath><linearGradient id="d" y1="1024.02" x2="1" y2="1024.02" gradientTransform="matrix(252.14, 0, 0, -252.14, 392.82, 258918.1)" gradientUnits="userSpaceOnUse"><stop offset="0" stop-color="#41b9b8"/><stop offset="0.58" stop-color="#43a0c2"/><stop offset="1" stop-color="#487fc1"/></linearGradient><clipPath id="e" transform="translate(15.63 -159.23)"><path d="M764.37,446.67l-37,154.45-14.86,62a26.77,26.77,0,0,1-1.43,6l-4.33,18.06a82.19,82.19,0,0,1-2.28,9.9,90.66,90.66,0,0,1-10.84,23.76,104.57,104.57,0,0,1-47.76,39.52A111,111,0,0,1,624.35,767l54.4-3.67a105.17,105.17,0,0,0,17.34-2.62c30.56-7.12,55.19-27.19,66.9-52.93,1.08-2.32,2-4.68,2.87-7.09l3.82-16,62.71-261.53c1.25-5.23-2.4-10.33-8.14-11.4l-1.14-.19a54,54,0,0,0-9.68-.87c-23,0-43.93,14.73-49.06,36" fill="none"/></clipPath><linearGradient id="f" y1="1024.01" x2="1" y2="1024.01" gradientTransform="matrix(55.55, -228.27, -256.75, -45.63, 263631.13, 47277.68)" gradientUnits="userSpaceOnUse"><stop offset="0" stop-color="#80c6d2"/><stop offset="0.03" stop-color="#80c6d2"/><stop offset="0.08" stop-color="#71c2cc"/><stop offset="0.19" stop-color="#56bbc3"/><stop offset="0.28" stop-color="#46b7bd"/><stop offset="0.36" stop-color="#40b6bb"/><stop offset="0.42" stop-color="#41adbe"/><stop offset="0.54" stop-color="#43a3c1"/><stop offset="0.69" stop-color="#43a0c2"/><stop offset="1" stop-color="#487fc1"/></linearGradient><clipPath id="g" transform="translate(15.63 -159.23)"><path d="M483,202.39a43.16,43.16,0,1,0,43.16-43.16A43.16,43.16,0,0,0,483,202.39" fill="none"/></clipPath><linearGradient id="h" y1="1024" y2="1024" gradientTransform="matrix(86.31, 0, 0, -86.31, 498.66, 88424.48)" xlink:href="#d"/><clipPath id="i" transform="translate(15.63 -159.23)"><path d="M434.44,474c-16.7,3.72-14.64,26.59-14.64,26.59l2.05,76.85c-1.8,18.61,22.87,18.61,22.87,18.61,18-2.39,18.36-18.35,18.36-18.35V491.28c-2.92-15.37-15.39-17.77-22.88-17.77a31.4,31.4,0,0,0-5.76.49" fill="none"/></clipPath><linearGradient id="j" y1="1024" x2="1" y2="1024" gradientTransform="matrix(43.37, 0, 0, -43.37, 435.35, 44784.64)" gradientUnits="userSpaceOnUse"><stop offset="0" stop-color="#41b9b8"/><stop offset="0.29" stop-color="#44a4bb"/><stop offset="0.74" stop-color="#4789bf"/><stop offset="1" stop-color="#487fc1"/></linearGradient><clipPath id="k" transform="translate(15.63 -159.23)"><path d="M611.52,471.47c-16.69,3.72-14.63,26.59-14.63,26.59l2.05,76.85c-1.79,18.61,22.85,18.61,22.85,18.61,18-2.39,18.35-18.35,18.35-18.35V488.76C637.21,473.38,624.75,471,617.27,471a31.35,31.35,0,0,0-5.75.49" fill="none"/></clipPath><linearGradient id="l" y1="1024" y2="1024" gradientTransform="matrix(43.33, 0, 0, -43.33, 612.44, 44741.42)" xlink:href="#j"/><clipPath id="m" transform="translate(15.63 -159.23)"><path d="M296.76,365.13a58.05,58.05,0,0,0-24.94,6.53,13.1,13.1,0,0,0-1.17.61,51.25,51.25,0,0,0-20.9,21l-.29.53a44.59,44.59,0,0,0-4.53,15.8l-.18,5.48v.08l-4.57,157.6s2.9,108-86.58,189.56c0,0-39.18,22,8.6,13.6,0,0,70.87-23.84,99.26-78.43,0,0,26.74-33.54,42.82-166.75l7.49-71.26,1-9.21,6.07-57.59v-.05a30.08,30.08,0,0,1,.46-4.4l0-.11a29.3,29.3,0,0,1,8.58-15.44A35.34,35.34,0,0,1,351,363.12Z" fill="none"/></clipPath><linearGradient id="n" y1="1024.04" x2="1" y2="1024.04" gradientTransform="matrix(109.63, -331.13, -397.26, -86.65, 406992.9, 89333.21)" gradientUnits="userSpaceOnUse"><stop offset="0" stop-color="#41b9b8"/><stop offset="0.6" stop-color="#43a0c2"/><stop offset="1" stop-color="#487fc1"/></linearGradient><clipPath id="o" transform="translate(15.63 -159.23)"><path d="M332.48,285.92c-.78,0-1.54,0-2.31.06H330c-.59-.06-1.21-.06-1.82-.06-42.09,0-77.18,33.42-81.56,77.65l0,.83-2.47,47.54a54.13,54.13,0,0,1,4.48-16.66l.14-.4c0,.15,0,0,0-.07s0-.22.1-.08A49.83,49.83,0,0,1,268,373.17a8.13,8.13,0,0,1,1.05-.61,44.2,44.2,0,0,1,22.26-6H740.39a49.57,49.57,0,0,0,36.39-16.28A57.83,57.83,0,0,0,791.84,311c0-13.84-10.37-25.05-23.18-25.05Z" fill="none"/></clipPath><mask id="p" x="259.78" y="126.69" width="547.69" height="126.02" maskUnits="userSpaceOnUse"><g transform="translate(15.63 -159.23)"><rect x="244.15" y="285.92" width="547.69" height="126.02" fill="url(#a)"/></g></mask><linearGradient id="q" y1="1024" x2="1" y2="1024" gradientTransform="matrix(547.69, 0, 0, -547.69, 259.78, 561027.82)" gradientUnits="userSpaceOnUse"><stop offset="0" stop-color="#fff"/><stop offset="0" stop-color="#def0ef"/><stop offset="0" stop-color="#bce0e0"/><stop offset="0" stop-color="#a0d3d3"/><stop offset="0" stop-color="#8ac9c9"/><stop offset="0" stop-color="#7bc2c1"/><stop offset="0" stop-color="#72bebd"/><stop offset="0" stop-color="#6fbdbc"/><stop offset="0" stop-color="#83c8d0"/><stop offset="0" stop-color="#96d1e2"/><stop offset="0" stop-color="#a0d7ed"/><stop offset="0" stop-color="#a4d9f0"/><stop offset="0.03" stop-color="#94d2e5"/><stop offset="0.05" stop-color="#89cfdf"/><stop offset="0.11" stop-color="#6fc6d1"/><stop offset="0.17" stop-color="#5ac0c6"/><stop offset="0.23" stop-color="#4cbbbf"/><stop offset="0.32" stop-color="#44b9ba"/><stop offset="0.45" stop-color="#41b8b9"/><stop offset="0.84" stop-color="#4691be"/><stop offset="1" stop-color="#487fc1"/></linearGradient></defs><title>LOGO</title><g clip-path="url(#b)"><g clip-path="url(#c)"><rect x="324.48" y="674.71" width="388.11" height="98.47" transform="matrix(1, -0.03, 0.03, 1, -7.72, -141.92)" fill="url(#d)"/></g><g clip-path="url(#e)"><polygon points="556.86 592.94 648.66 215.75 932.38 266.17 840.59 643.37 556.86 592.94" fill="url(#f)"/></g><g clip-path="url(#g)"><rect x="498.66" width="86.31" height="86.31" fill="url(#h)"/></g><g clip-path="url(#i)"><rect x="433.37" y="314.28" width="45.34" height="122.54" fill="url(#j)"/></g><g clip-path="url(#k)"><rect x="610.46" y="311.75" width="45.3" height="122.54" fill="url(#l)"/></g><g clip-path="url(#m)"><polygon points="0 596.68 145.99 155.75 496.72 232.26 350.73 673.19 0 596.68" fill="url(#n)"/></g><g clip-path="url(#o)"><g mask="url(#p)"><rect x="259.78" y="126.69" width="547.69" height="126.02" fill="url(#q)"/></g></g></g></svg>