<?xml version="1.0" standalone="no"?>
<!DOCTYPE svg PUBLIC "-//W3C//DTD SVG 20010904//EN"
 "http://www.w3.org/TR/2001/REC-SVG-20010904/DTD/svg10.dtd">
<svg version="1.0" xmlns="http://www.w3.org/2000/svg"
 width="695.000000pt" height="695.000000pt" viewBox="0 0 695.000000 695.000000"
 preserveAspectRatio="xMidYMid meet">
<metadata>
Created by potrace 1.14, written by Peter Selinger 2001-2017
</metadata>
<g transform="translate(0.000000,695.000000) scale(0.100000,-0.100000)"
fill="#000000" stroke="none">
<path d="M3760 6931 c-122 -38 -219 -123 -273 -239 -26 -57 -31 -81 -33 -159
-5 -140 32 -232 132 -329 188 -182 494 -153 647 62 122 173 103 407 -46 556
-50 49 -132 97 -192 113 -59 15 -179 13 -235 -4z"/>
<path d="M1867 5683 c-1 0 -31 -4 -66 -8 -36 -4 -99 -18 -140 -32 -255 -82
-451 -285 -535 -552 -29 -92 -36 -136 -41 -266 -2 -49 -4 -90 -5 -90 -4 0 -9
-113 -14 -335 -5 -219 -9 -346 -21 -740 -3 -85 -7 -240 -10 -345 -14 -553 -22
-730 -31 -746 -2 -4 -6 -28 -9 -55 -3 -27 -7 -60 -10 -74 -33 -169 -63 -285
-111 -422 -136 -393 -350 -736 -635 -1018 -42 -41 -106 -95 -143 -120 -36 -25
-74 -56 -82 -69 -16 -23 -15 -25 2 -38 14 -11 39 -13 99 -9 128 9 172 23 355
115 209 105 383 226 522 364 115 114 187 213 288 392 40 72 137 326 165 435
50 188 69 269 94 390 35 171 58 289 66 345 3 23 7 50 9 61 2 12 7 45 11 74 4
29 8 62 11 73 3 20 16 116 19 152 1 11 4 38 8 60 6 38 8 60 22 210 3 33 8 76
10 95 10 83 16 139 20 190 2 30 7 71 10 90 3 19 7 62 10 95 2 33 7 78 10 100
6 54 13 118 20 190 3 33 8 74 10 90 2 17 7 62 10 100 4 39 8 81 10 95 2 14 6
54 10 90 14 149 41 203 138 275 l38 28 2062 2 c1134 1 2076 5 2092 9 58 13
159 67 211 111 188 161 254 479 127 610 -19 19 -53 45 -75 56 l-42 21 -2244 2
c-1234 0 -2244 0 -2245 -1z m-742 -981 c-3 -3 -11 0 -18 7 -9 10 -8 11 6 5 10
-3 15 -9 12 -12z"/>
<path d="M6618 4414 c-92 -27 -138 -46 -138 -56 0 -4 -7 -8 -15 -8 -26 0 -140
-124 -167 -181 -14 -30 -48 -151 -77 -269 -28 -118 -58 -240 -66 -270 -8 -30
-16 -66 -19 -80 -4 -22 -66 -283 -83 -350 -3 -14 -8 -34 -10 -45 -2 -11 -8
-38 -14 -60 -6 -22 -12 -47 -14 -55 -2 -8 -17 -71 -34 -140 -17 -69 -69 -287
-116 -485 -48 -198 -99 -414 -115 -480 -52 -216 -64 -270 -62 -277 2 -11 -65
-66 -111 -90 l-42 -23 -1555 -5 c-1473 -5 -1558 -6 -1610 -23 -70 -24 -204
-94 -261 -138 -62 -47 -167 -166 -195 -220 -55 -109 -44 -209 30 -262 l31 -22
1515 0 c833 0 1549 3 1590 7 41 4 125 10 185 13 361 19 586 101 781 284 150
141 230 296 279 541 4 20 64 268 136 565 32 132 60 251 63 265 2 14 27 120 55
235 56 230 123 508 171 710 18 72 49 204 71 295 22 91 42 174 44 185 3 11 23
93 44 183 46 190 45 223 -12 253 -54 30 -188 31 -279 3z"/>
<path d="M4704 3816 c-54 -24 -92 -77 -109 -151 -7 -30 -7 -211 0 -415 2 -58
6 -199 9 -314 7 -237 12 -254 83 -294 122 -67 260 -37 314 71 21 40 22 53 22
497 0 436 -1 458 -20 501 -20 45 -63 85 -113 106 -38 15 -151 15 -186 -1z"/>
<path d="M2961 3800 c-51 -12 -83 -40 -114 -102 -24 -47 -29 -69 -29 -134 -1
-71 8 -429 17 -736 5 -163 23 -196 128 -232 119 -40 238 8 279 113 6 16 10
200 10 481 0 392 -3 460 -16 492 -19 44 -59 84 -103 103 -40 17 -127 24 -172
15z"/>
</g>
</svg>
