<?xml version="1.0" encoding="utf-8"?>
<svg version="1.1" id="Layer_1" xmlns="http://www.w3.org/2000/svg" x="0px" y="0px" viewBox="0 0 548.3 1110.5" style="enable-background:new 0 0 548.3 1110.5;" xml:space="preserve">
<path d="M169.9,0.9c0.6,1.7,111.5,236.5,112,237c0.3,0.3,236.9-111.6,237.8-112.5c0.5-0.5-148.3-54.2-340.5-122.7
	C170.8-0.3,169.4-0.6,169.9,0.9L169.9,0.9z"/>
<path d="M62.3,195.5C27.9,291.9-0.2,370.9,0,371.1c0.3,0.3,237.4-111.5,238.2-112.3c0.3-0.3-111.7-236.9-112.5-237.8
	C125.3,20.6,96.8,99.1,62.3,195.5L62.3,195.5z"/>
<path d="M306.5,290c9.4,19.7,18.6,39.5,27.9,59.3c9.3,19.7,18.6,39.5,28,59.2c9.3,19.7,18.7,39.5,28,59.2
	c9.3,19.7,18.7,39.5,28,59.2c9.4,19.8,18.8,39.5,28.1,59.3c1.1,2.3,2.2,4.7,3.3,7l1.8,3.4l0.8-3c1.8-6.7,3.1-13.6,4.6-20.3
	c1.6-7,3.1-13.9,4.7-20.9c3.1-13.8,6.2-27.6,9.3-41.4c3.1-13.9,6.2-27.8,9.4-41.6c3.1-13.9,6.2-27.8,9.4-41.7
	c3.1-14,6.3-27.9,9.4-41.9c3.1-13.8,6.2-27.7,9.3-41.5c3.1-13.9,6.2-27.7,9.3-41.6c3.1-13.9,6.2-27.7,9.3-41.6
	c3.1-14,6.3-28,9.4-41.9c3.1-14,6.3-27.9,9.4-41.9c0.7-3.3,1.5-6.5,2.2-9.8"/>
<path d="M13.1,418.9l53.5,27c29.4,14.9,99.6,50.3,156.2,78.7l102.7,51.7"/>
<path d="M406.8,615.7c-9.7-20.6-19.3-41.2-28.9-61.8c-9.5-20.4-19-40.8-28.7-61.2c-9.7-20.5-19.4-40.9-29.1-61.3
	c-9.8-20.5-19.6-41.1-29.4-61.6c-9.7-20.3-19.4-40.7-29.5-60.8c-0.5-1.1-1.1-2.2-1.7-3.3c-0.2-0.5-0.6-2.1-1.2-2.2
	c-0.8-0.1-180.4,84.7-245.3,115.4"/>
<path d="M360.5,594.2"/>
<path d="M404.5,633.4c-22.1,70.1-89.7,205.7-150.8,302.8c-45.7,72.6-88.8,124.1-115,137.4l-3.3,1.7l4.8,4
	c21.8,18,44.7,29.2,62.5,30.6l7.7,0.6l13.4-20.4c93.4-142,163.9-309.4,180.7-428.9c1.8-13.4,4.1-37.1,3.5-37.8
	C407.9,623.3,406.3,627.8,404.5,633.4L404.5,633.4z"/>
</svg>
