<svg version="1.0" xmlns="http://www.w3.org/2000/svg" viewBox="0 0 2600 2600"><metadata>Created by potrace 1.15, written by Peter Selinger 2001-2017</metadata><path d="M1740.4 273.7c.6 1.7 111.5 236.5 112 237 .3.3 236.9-111.6 237.8-112.5.5-.5-148.3-54.2-340.5-122.7-8.4-3-9.8-3.3-9.3-1.8zM1632.8 468.3c-34.4 96.4-62.5 175.4-62.3 175.6.3.3 237.4-111.5 238.2-112.3.3-.3-111.7-236.9-112.5-237.8-.4-.4-28.9 78.1-63.4 174.5zM1995.5 496.8c-67.1 31.8-121.9 58.3-121.8 58.8.2 1 144 304.9 146.8 310.5l1.8 3.4.8-3c.9-3.4 95.9-426.6 95.9-427.1 0-.2-.3-.4-.7-.4-.5 0-55.7 26.1-122.8 57.8zM1709.5 632c-64.9 30.7-119.8 56.7-121.9 57.8l-4 1.9 53.5 27c29.4 14.9 99.6 50.3 156.2 78.7l102.7 51.7-6.1 8c-42.8 55.2-101.8 114.7-162.2 163.3-122.7 98.7-278.4 181.1-450.7 238.6-30.4 10.1-93.7 29-97.2 29-.4 0-.1-1.9.7-4.1 2.1-5.9 1.9-16.5-.5-24-6.4-20.7-29.7-32.6-50.7-26.1-3.6 1.2-33 17.7-77.1 43.5l-71.4 41.6-94.6 15.5c-52.1 8.5-100.3 15.9-107.2 16.4-26 2.2-47 11.6-64.6 29.1-12.8 12.7-20.9 26.3-25.9 43.6-3.2 11.2-6.2 38.5-7 64.5-1.4 47.7-5.9 140.1-10.5 217.4-2.8 45.6-4.9 83-4.7 83.2.3.4 233.6-42.2 234.2-42.7.7-.8-3.4-117-6.5-183.9-1.6-36-3-66.4-3-67.6 0-2 6-4.2 72.8-26.3 60.8-20.1 73.4-24.6 76.8-27.3 2.2-1.8 21.9-22.7 43.9-46.3 21.9-23.7 42.8-46.1 46.4-49.9l6.6-6.9 21.5-5.3c130.2-31.7 270.6-85.3 386.1-147.3 153.4-82.3 275.1-180.4 368.2-296.9 9.3-11.6 17.3-21.2 17.7-21.2.4 0 11 5.2 23.4 11.6 12.5 6.4 23 11.4 23.3 11.1.9-.9-147.3-313.2-148.8-313.4-.8-.1-54.5 25-119.4 55.7zM1975 906.2c-22.1 70.1-89.7 205.7-150.8 302.8-45.7 72.6-88.8 124.1-115 137.4l-3.3 1.7 4.8 4c21.8 18 44.7 29.2 62.5 30.6l7.7.6 13.4-20.4c93.4-142 163.9-309.4 180.7-428.9 1.8-13.4 4.1-37.1 3.5-37.8-.1-.1-1.7 4.4-3.5 10z"/><path d="M1999.1 899.8c-1.6 15-11.1 71.8-17.2 103.2-28.2 144.2-70.3 251.4-118.4 301.8-5.5 5.8-12.6 12.7-15.8 15.3l-5.8 4.9 11.3 5.4c21.6 10.4 38.2 15 54.3 15 15.4 0 14.3 1.1 23.7-24.9 43.3-120.5 59.4-187 67.4-277.5 1.9-21.8 3-116 1.6-133.5-.5-6.1-1-10.4-1.1-9.7zM783.5 982.7c-8.1 1-23.7 4.8-32.8 7.9-76.6 26.7-120.4 107.6-100.7 186 7.6 30.1 21.9 54.6 44.7 76.5 21.4 20.5 47.7 33.9 79.3 40.6 12 2.5 44.9 2.6 57 0 22-4.6 45-14.3 62.1-26.2 11.4-8 31-27.8 38.7-39.2 25.7-38 34.1-83.7 23.2-127.1-7.5-29.6-21.8-54.2-44.2-75.8-29.6-28.5-67.8-43.7-109.1-43.3-8.4.1-16.5.4-18.2.6zM909.4 1798.4c-21.4 21.8-42 45.9-60.4 70.6-9.1 12.3-29 41.8-34.5 51.3-1.5 2.6-2.9 4.7-3 4.5-.2-.2-1-5.3-1.9-11.3-4.8-32.6-16.3-55.1-34.3-67.1-18.1-12-46.1-16.6-87.3-14.4-11.8.6-21.7 1.4-21.9 1.6-.3.3-6 33.1-12.7 73l-12.2 72.6-9.4 9.7c-12.9 13.1-133.7 139.9-141.6 148.6-7 7.7-13.2 19.1-15.9 29.5-2.4 8.8-2.3 26.3 0 35 11.4 41.9 55.9 63.8 95.8 47.1 4.1-1.7 10-5.1 13.2-7.5 9.1-6.8 189.3-175.2 193.1-180.4 9-12.5 9.6-14.4 26.1-85.7 6.3-27.5 11.9-51 12.5-52.3.5-1.2 1.8-2.2 2.7-2.1 1.7 0 71.3 83.8 75.4 90.7 1 1.5 17.5 57.6 36.8 124.7 24 83.5 36.2 124.2 38.6 129 8 16.5 22.8 28.6 41 33.6 6.8 1.8 9.7 2.1 19.5 1.6 12-.5 17.7-2 27.6-7 20.1-10.2 34.3-33.5 34.4-56.2 0-7.8-37.2-281.6-39.6-291-2-8.2-5.3-15-10.5-22.1-8.2-11.2-115.2-140.4-116.3-140.4-.5 0-7.4 6.5-15.2 14.4z"/></svg>