<?xml version="1.0" encoding="UTF-8" standalone="no"?>
<!DOCTYPE svg PUBLIC "-//W3C//DTD SVG 1.1//EN" "http://www.w3.org/Graphics/SVG/1.1/DTD/svg11.dtd">
<!-- Created with Vectornator (http://vectornator.io/) -->
<svg height="100%" stroke-miterlimit="10" style="fill-rule:nonzero;clip-rule:evenodd;stroke-linecap:round;stroke-linejoin:round;" version="1.1" viewBox="0 0 1024 1024" width="100%" xml:space="preserve" xmlns="http://www.w3.org/2000/svg" xmlns:vectornator="http://vectornator.io" xmlns:xlink="http://www.w3.org/1999/xlink">
<defs>
<linearGradient gradientTransform="matrix(1.0599 0 0 1.05106 -31.5107 -3.94641)" gradientUnits="userSpaceOnUse" id="LinearGradient" x1="520" x2="520" y1="640" y2="420">
<stop offset="0" stop-color="#c1bdb8"/>
<stop offset="1" stop-color="#fcfcfc"/>
</linearGradient>
<linearGradient gradientTransform="matrix(1.0599 0 0 1.05106 -31.5107 -3.94641)" gradientUnits="userSpaceOnUse" id="LinearGradient_2" x1="730.587" x2="840" y1="485.622" y2="860">
<stop offset="0" stop-color="#ead968"/>
<stop offset="1" stop-color="#ddc20f"/>
</linearGradient>
<linearGradient gradientTransform="matrix(1.0599 0 0 1.05106 -31.5107 -3.94641)" gradientUnits="userSpaceOnUse" id="LinearGradient_3" x1="310.021" x2="220" y1="485.794" y2="820">
<stop offset="0" stop-color="#ead968"/>
<stop offset="1" stop-color="#ddc20f"/>
</linearGradient>
<linearGradient gradientTransform="matrix(1.0599 0 0 1.05106 -31.5107 -3.94641)" gradientUnits="userSpaceOnUse" id="LinearGradient_4" x1="800" x2="740" y1="200" y2="360">
<stop offset="0" stop-color="#b47732"/>
<stop offset="1" stop-color="#875319"/>
</linearGradient>
<linearGradient gradientTransform="matrix(1.0599 0 0 1.05106 -31.5107 -3.94641)" gradientUnits="userSpaceOnUse" id="LinearGradient_5" x1="240" x2="280" y1="220" y2="380">
<stop offset="0" stop-color="#b47732"/>
<stop offset="1" stop-color="#875319"/>
</linearGradient>
</defs>
<g id="V" vectornator:layerName="V">
<path d="M317.011 564.638L489.082 688.737C505.956 700.907 533.314 700.907 550.188 688.737L722.26 564.638C739.133 552.468 748.346 526.426 742.836 506.47L711.748 393.877C711.748 393.877 630.924 563.624 519.635 563.624C408.346 563.624 328.945 398.794 328.945 398.794L297.08 506.651C291.214 526.507 300.137 552.468 317.011 564.638Z" fill="url(#LinearGradient)" fill-rule="nonzero" opacity="1" stroke="none"/>
</g>
<g id="M" vectornator:layerName="M">
<path d="M682.82 443.991L789.098 259.874C792.773 253.507 796.527 254.225 797.483 261.479L879.888 886.829C880.844 894.082 875.564 899.962 868.095 899.962L723.41 899.962C715.941 899.962 709.51 894.045 709.047 886.745L682.82 443.991" fill="url(#LinearGradient_2)" fill-rule="nonzero" opacity="1" stroke="none"/>
<path d="M353.312 441.546L321.054 885.494C320.472 893.506 313.488 900 305.456 900L172.945 900C164.913 900 159.242 893.543 160.278 885.578L241.316 262.767C242.353 254.802 246.417 254.002 250.395 260.98L353.312 441.546" fill="url(#LinearGradient_3)" fill-rule="nonzero" opacity="1" stroke="none"/>
</g>
<g id="Horn" vectornator:layerName="Horn">
<path d="M816.406 80.1381C816.406 80.1381 816.406 206.265 795.208 227.286C731.615 311.371 725.009 370.903 725.009 370.903C725.009 370.903 752.227 351.22 774.01 353.413C795.794 355.606 813.116 380.111 813.116 380.111C813.116 380.111 800.766 297.74 880 227.286C858.802 164.223 816.406 80.1381 816.406 80.1381Z" fill="url(#LinearGradient_4)" fill-rule="nonzero" opacity="1" stroke="none"/>
<path d="M201.666 80.1381C234.997 104.927 244.062 206.265 244.062 206.265L307.566 361.285C307.566 361.285 286.348 343.262 265.26 353.413C244.172 363.564 223.214 401.888 223.214 401.888C223.214 401.888 236.526 299.587 180.469 269.328C201.666 143.202 196.834 76.5436 201.666 80.1381Z" fill="url(#LinearGradient_5)" fill-rule="nonzero" opacity="1" stroke="none"/>
</g>
</svg>
