<?xml version="1.0" encoding="UTF-8" standalone="no"?>
<!DOCTYPE svg PUBLIC "-//W3C//DTD SVG 1.1//EN" "http://www.w3.org/Graphics/SVG/1.1/DTD/svg11.dtd">
<!-- Created with Vectornator (http://vectornator.io/) -->
<svg height="100%" stroke-miterlimit="10" style="fill-rule:nonzero;clip-rule:evenodd;stroke-linecap:round;stroke-linejoin:round;" version="1.1" viewBox="0 0 1024 1024" width="100%" xml:space="preserve" xmlns="http://www.w3.org/2000/svg" xmlns:vectornator="http://vectornator.io" xmlns:xlink="http://www.w3.org/1999/xlink">
<defs>
<linearGradient gradientTransform="matrix(1 0 0 1 0 0)" gradientUnits="userSpaceOnUse" id="LinearGradient" x1="520" x2="520" y1="640" y2="420">
<stop offset="0" stop-color="#c1bdb8"/>
<stop offset="1" stop-color="#fcfcfc"/>
</linearGradient>
<linearGradient gradientTransform="matrix(1 0 0 1 0 0)" gradientUnits="userSpaceOnUse" id="LinearGradient_2" x1="730.587" x2="840" y1="485.622" y2="860">
<stop offset="0" stop-color="#ead968"/>
<stop offset="1" stop-color="#ddc20f"/>
</linearGradient>
<linearGradient gradientTransform="matrix(1 0 0 1 0 0)" gradientUnits="userSpaceOnUse" id="LinearGradient_3" x1="310.021" x2="220" y1="485.794" y2="820">
<stop offset="0" stop-color="#ead968"/>
<stop offset="1" stop-color="#ddc20f"/>
</linearGradient>
<linearGradient gradientTransform="matrix(1 0 0 1 0 0)" gradientUnits="userSpaceOnUse" id="LinearGradient_4" x1="800" x2="740" y1="200" y2="360">
<stop offset="0" stop-color="#b47732"/>
<stop offset="1" stop-color="#875319"/>
</linearGradient>
<linearGradient gradientTransform="matrix(1 0 0 1 0 0)" gradientUnits="userSpaceOnUse" id="LinearGradient_5" x1="240" x2="280" y1="220" y2="380">
<stop offset="0" stop-color="#b47732"/>
<stop offset="1" stop-color="#875319"/>
</linearGradient>
</defs>
<g id="V" vectornator:layerName="V">
<path d="M328.826 540.965L491.174 659.035C507.094 670.614 532.906 670.614 548.826 659.035L711.174 540.965C727.094 529.386 735.786 504.608 730.587 485.622L701.256 378.498C701.256 378.498 625 540 520 540C415 540 340.085 383.177 340.085 383.177L310.021 485.794C304.487 504.686 312.906 529.386 328.826 540.965Z" fill="url(#LinearGradient)" fill-rule="nonzero" opacity="1" stroke="none"/>
</g>
<g id="M" vectornator:layerName="M">
<path d="M673.963 426.178L774.235 251.005C777.702 244.947 781.245 245.631 782.146 252.532L859.895 847.504C860.796 854.405 855.815 860 848.768 860L712.259 860C705.212 860 699.145 854.37 698.707 847.425L673.963 426.178" fill="url(#LinearGradient_2)" fill-rule="nonzero" opacity="1" stroke="none"/>
<path d="M363.076 423.852L320.321 847.488C319.691 854.418 313.539 860.036 306.58 860.036L191.78 860.036C184.821 860.036 179.902 854.441 180.792 847.54L257.567 252.532C258.458 245.631 261.956 244.947 265.38 251.005L363.076 423.852" fill="url(#LinearGradient_3)" fill-rule="nonzero" opacity="1" stroke="none"/>
</g>
<g id="Horn" vectornator:layerName="Horn">
<path d="M800 80C800 80 800 200 780 220C720 300 713.125 356.902 713.125 356.902C713.125 356.902 739.447 337.914 760 340C780.553 342.086 795.336 365.248 795.336 365.248C795.336 365.248 785.244 287.031 860 220C840 160 800 80 800 80Z" fill="url(#LinearGradient_4)" fill-rule="nonzero" opacity="1" stroke="none"/>
<path d="M220 80C251.447 103.585 260 200 260 200L319.915 347.49C319.915 347.49 299.896 330.342 280 340C260.104 349.658 240.33 386.121 240.33 386.121C240.33 386.121 252.889 288.788 200 260C220 140 215.44 76.5801 220 80Z" fill="url(#LinearGradient_5)" fill-rule="nonzero" opacity="1" stroke="none"/>
</g>
</svg>
