<svg xmlns="http://www.w3.org/2000/svg" width="200" height="200" class="icon" viewBox="0 0 1024 1024">
	<path d="M451.2 19.84c51.84 138.88 26.24 216.32-33.28 275.84-62.72 67.2-163.2 117.12-232.32 215.04-92.8 131.2-108.8 417.92 225.92 492.8-140.8-74.24-170.88-289.28-19.2-423.04-39.04 129.92 33.92 213.12 124.16 183.04 88.96-30.08 147.2 33.92 145.28 106.88-1.28 49.92-19.84 92.16-72.32 115.84 218.88-37.76 305.92-218.88 305.92-355.84 0-181.76-161.92-206.08-80-359.04-97.28 8.32-129.92 72.32-120.96 176 5.76 69.12-65.28 115.2-119.04 85.12-42.88-26.24-42.24-76.16-3.84-113.92 80-78.72 112-261.76-120.32-398.08l-1.28-1.28 1.28.64z"/>
</svg>
