<svg xmlns="http://www.w3.org/2000/svg" viewBox="0 0 142.8 138.9" opacity=".8">
	<path fill="#E2E5F1" d="M115.2 117.9H22.8c-2.2-.1-3.9-2-3.8-4.2V49.1h100v64.6c.1 2.2-1.6 4.1-3.8 4.2zm3.8-72.2H19v-12c-.1-2.2 1.6-4.1 3.8-4.2h92.3c2.2.1 3.9 2 3.8 4.2v12h.1zm-87.9-6 1.5 1.5c.4.4 1.1.4 1.5 0 .4-.4.4-1 0-1.4l-1.5-1.5 1.5-1.5c.4-.4.4-1 0-1.5-.4-.4-1-.4-1.5 0l-1.5 1.5-1.5-1.5c-.4-.4-1-.4-1.5 0-.4.4-.4 1 0 1.5l1.5 1.5-1.5 1.5c-.4.4-.4 1.1 0 1.5s1.1.4 1.5 0l1.5-1.6zm20.7-4.6c-1.7 0-3.1 1.4-3.1 3.1 0 1.7 1.4 3.1 3.1 3.1 1.7 0 3.1-1.4 3.1-3.1-.1-1.7-1.4-3.1-3.1-3.1zm-10 0c-1.7 0-3.1 1.4-3.1 3.1 0 1.7 1.4 3.1 3.1 3.1 1.7 0 3.1-1.4 3.1-3.1-.1-1.7-1.4-3.1-3.1-3.1z"/>
	<path fill="#A4BFFF" d="M137.3 97.4c-3 0-5.4-2.4-5.4-5.4 0-3 2.4-5.4 5.4-5.4 3 0 5.4 2.4 5.4 5.4 0 2.9-2.4 5.4-5.4 5.4zm0-9c-2 0-3.6 1.6-3.6 3.6s1.6 3.6 3.6 3.6 3.6-1.6 3.6-3.6-1.6-3.6-3.6-3.6z"/>
	<path fill="#C2C8D8" d="m19 53.1-8.3-8.3 8.3-8.3 8.3 8.3-8.3 8.3zm-5.3-8.3 5.5 5.5 5.5-5.5-5.5-5.5-5.5 5.5z"/>
	<path fill="#417AFF" d="M81.7 8.6c-.6 0-1-.4-1-1V5.4h-2.2c-.6 0-1-.4-1-1v-.2c0-.6.4-1 1-1h2.2V1c0-.6.4-1 1-1h.2c.6 0 1 .4 1 1v2.2h2.2c.6 0 1 .4 1 1v.2c0 .6-.4 1-1 1h-2.2v2.2c0 .6-.4 1-1 1h-.2z"/>
	<path fill="#C2C8D8" d="M62.9 138.9c-.6 0-1-.4-1-1v-3.6h-3.6c-.6 0-1-.4-1-1v-1.1c0-.6.4-1 1-1h3.6v-3.6c0-.6.4-1 1-1H64c.6 0 1 .4 1 1v3.6h3.6c.6 0 1 .4 1 1v1.1c0 .6-.4 1-1 1H65v3.6c0 .6-.4 1-1 1h-1.1z"/>
	<path fill="#F1F3F8" d="M5 25.7c-.6 0-1-.4-1-1v-3H1c-.6 0-1-.4-1-1V20c0-.6.4-1 1-1h3v-3c0-.6.4-1 1-1h.7c.6 0 1 .4 1 1v3h3c.6 0 1 .4 1 1v.7c0 .6-.4 1-1 1h-3v3c0 .6-.4 1-1 1H5z"/>
	<path fill="#FFF" d="M54.2 77.4h-4.6v3.8h-3l7.2-12.4h-5.2L41 81.7v3.7h8.6v5.2h4.6v-5.2h2.4v-4.2h-2.4v-3.8zM69 68.8c-3.1 0-5.5 1-7 3-3.1 4.8-3.1 11 0 15.9 1.5 2 3.9 3 7 3s5.5-1 7-3c3.1-4.8 3.1-11 0-15.9-1.5-2-3.8-3-7-3zm3.4 16c-1 1.8-3.4 2.5-5.2 1.4-.6-.3-1.1-.8-1.4-1.4-1.4-3.2-1.4-6.9 0-10.2 1.1-1.8 3.4-2.5 5.2-1.4.6.3 1.1.8 1.4 1.4 1.4 3.2 1.4 6.9 0 10.2zm22.2-3.6v-3.8H90v3.8h-3l7.2-12.4H89l-7.6 12.9v3.7H90v5.2h4.6v-5.2H97v-4.2h-2.4z"/>
	<path fill="#417AFF" d="M51.2 104.4 10.8 81.1c-.9-.5-2-.2-2.5.7-.2.3-.2.6-.2.9v46.6c0 1 .8 1.8 1.8 1.8.3 0 .6-.1.9-.2l40.4-23.3c.9-.5 1.2-1.6.7-2.5-.2-.3-.4-.6-.7-.7zm-35.4-8c-.1-.2 0-.5.2-.6l2.3-1.3c.2-.1.5 0 .6.2l5.2 8.9c.1.2 0 .5-.2.6l-2.3 1.3c-.2.1-.5 0-.6-.2l-5.2-8.9zm11.4 16.2c-1.3.8-2.9.4-3.7-.9s-.4-2.9.9-3.7c1.3-.8 2.9-.4 3.7.9v.1c.8 1.2.4 2.8-.9 3.6z"/>
	<path fill="#697391" d="M120.5 52.9 98.9 31.4c-2.4-2.5-2.4-6.5.1-8.9 2.4-2.4 6.3-2.4 8.8 0l2.7 2.7c4.3-3.7 10.6-3.7 14.9-.1l2.9-2.9c-.7-1.4-.1-3.1 1.4-3.8 1.4-.7 3.1-.1 3.8 1.4s.1 3.1-1.4 3.8c-.8.4-1.7.4-2.5 0l-2.9 2.9c3.6 4.3 3.6 10.6-.1 14.9l2.7 2.7c2.5 2.5 2.5 6.4 0 8.9-2.4 2.4-6.4 2.4-8.8-.1zm4.2-8.1c-.9-1-2.5-1-3.4 0-1 .9-1 2.5 0 3.4s2.5 1 3.4 0c.9-.9.9-2.4 0-3.4zm-8.8-8.8c-.9-1-2.5-1-3.4 0-1 .9-1 2.5 0 3.4s2.5 1 3.4 0c.9-.9.9-2.4 0-3.4zm-8.8-8.8c-.9-1-2.5-1-3.4 0s-1 2.5 0 3.4 2.5 1 3.4 0c.9-.9.9-2.4 0-3.4z"/>
	<path fill="none" stroke="#C2C8D8" stroke-dasharray="2" d="m94.5 36.1-51 20m72 2-18 58"/>
	<path fill="#C2C8D8" d="m111 51.6-10.8-10.8c-1.5-1.5-1.5-4 0-5.5l16.2 16.2c-1.4 1.7-3.9 1.7-5.4.1z"/>
</svg>
